<svg xmlns="http://www.w3.org/2000/svg" xmlns:xlink="http://www.w3.org/1999/xlink" viewBox="0 0 2048 2048"><defs><style>.cls-1{fill:#fafafa;}.cls-2{fill:#e9f6ff;}.cls-3{fill:url(#radial-gradient);}.cls-4{fill:#272780;}.cls-11,.cls-12,.cls-13,.cls-14,.cls-5{fill:none;}.cls-6,.cls-8{fill:#605ece;}.cls-7,.cls-9{fill:#fff;}.cls-7,.cls-8{fill-rule:evenodd;}.cls-10{fill:#a7a7f9;}.cls-11,.cls-12,.cls-13,.cls-14{stroke:#605ece;stroke-linecap:round;stroke-linejoin:round;stroke-width:6px;}.cls-12{stroke-dasharray:0 19.82;}.cls-13{stroke-dasharray:0 0 0 19.82;}.cls-14{stroke-dasharray:0 0 0 20;}</style><radialGradient id="radial-gradient" cx="1024" cy="1792" r="831.66" gradientTransform="translate(0 1734.87) scale(1 0.04)" gradientUnits="userSpaceOnUse"><stop offset="0.42" stop-color="#cacafc"/><stop offset="1" stop-color="#f0f0ff"/></radialGradient></defs><title>Free Car Insurance Illustration (SVG)</title><g id="scene"><path class="cls-1" d="M1841.5,1782H206.5A546.49,546.49,0,0,0,231,1681.73C271.12,1407,71.61,1279.73,123,1124c48.45-146.81,248.13-101.5,319-271,62.66-149.88-68.69-244.59-7-375,70.44-148.9,340.33-233.93,521-154,195.48,86.48,169.8,314.41,352,360,153.18,38.33,258.49-101,356-37,68.47,44.91,51.94,136.81,91.31,291.76a995,995,0,0,0,36,112.92c89.11,231.33,106.62,484.12,51.25,725.76Z"/><circle class="cls-2" cx="280" cy="760" r="65"/><circle class="cls-2" cx="1736" cy="379" r="44"/><circle class="cls-2" cx="1429.59" cy="606.5" r="22"/><circle class="cls-2" cx="358" cy="324" r="22"/><circle class="cls-2" cx="1171" cy="215" r="38"/><ellipse class="cls-3" cx="1024" cy="1803" rx="935.5" ry="26"/></g><g id="illustration"><path class="cls-4" d="M501.63,1094.77c-4.89,8.81-8.19,15.5-9.42,19-3.43,10.48-4.79,15.72-5.9,18.62-6.06-1.49-12.75-4.11-18.16-2.36-5.34,2.1-6.29,7.32-12.57,9-7.47,1.5-18.45-2.62-25.76-3.65-15.74-2.6-32.1-4.74-47.81-8.39-25.3-5.76-34.11-29.34-32.61-53,1.65-22.08,24.16-29.38,42-32,17.8-3.19,42-11.14,58.81-1.06C474.59,1055.87,465,1101.51,501.63,1094.77Z"/><path class="cls-5" d="M1623.73,1528.6c-3.73-5.15-9.06-9.39-17.08-12.38-10.54-3.7-47.19-5.54-92.32-4.74h-9.22c-4,.26-7.63.26-11.6.51h-9.76l-13.47.8c-17.39.53-35.08,1.59-52.21,2.9-3.17.27-6.32.53-9.51.53-11.33.8-22.15,1.85-32.43,2.9-4.22.52-8.45,1.05-12.39,1.58h-1.08c-3.94.53-8.17,1.06-11.85,1.58a10.68,10.68,0,0,1-2.91.27c-2.91.53-5.8,1.06-8.43,1.32-4.22.8-8.44,1.58-12.15,2.11a78.85,78.85,0,0,0-8.17,1.84c10.28,35.61,20.07,85.47,57.78,98.13,22.92,8.44,76.22,6.33,101.54,6.33,10.1,0,20,0,30.07-.16v-98.69C1561.29,1531.26,1603.19,1529.47,1623.73,1528.6Z"/><path class="cls-5" d="M1408.56,906.11l-384.84-12.66L638.11,906.9s-138.48,216.3-127.95,216.3c9.76,0,357.41-20.06,513.3-16.89,156.15-3.42,503.54,16.1,513.59,16.1C1547.58,1122.41,1408.56,906.11,1408.56,906.11Z"/><path class="cls-5" d="M456.61,1254.81c-23.47.27-28.23-2.89-33,19-3.15,14.25-3.15,33.24,0,45.9,9.5,45.64,67.79,45.64,105.5,45.64,69.4,0,129.52,17.14,184.13-80.72-47-14-102.08-12.4-149.56-20.05C527.57,1258.25,492.75,1254.81,456.61,1254.81Z"/><path class="cls-5" d="M1590.57,1254a583.54,583.54,0,0,0-106.82,9.76c-47.21,7.65-102.6,6.32-149.56,20.31,54.59,97.59,114.73,80.45,184.1,80.19,38,0,96,0,105.51-45.63,3.17-12.66,3.17-31.66,0-45.9C1619.06,1250.86,1614.32,1254,1590.57,1254Z"/><path class="cls-5" d="M542.08,1536.5v96.3c9,.27,18.18.27,27.43.27,25.32,0,78.59,1.85,101.82-6.59,37.72-12.66,46.94-62.52,57.5-98.13-1.86-.53-3.71-.78-5.82-1.31l-3.94-.8A6.69,6.69,0,0,1,717,1526c-1.82-.27-3.68-.8-5.79-1.06-1.34-.25-2.91-.52-4.48-.78-3.17-.27-6.34-.8-9.77-1.33-3.68-.53-7.91-1-12.13-1.58-6.33-.79-12.93-1.59-19.78-2.11-4.48-.26-9-.79-13.7-1.32-4.77-.26-9.51-.78-14.28-1s-9.47-.79-14.5-1.06c-3.17-.26-6.31-.53-9.76-.53-9-.53-17.93-1.06-26.89-1.31-15-.8-29.81-1.06-43.79-1.33-4.74-.26-9.48-.26-14-.26-42.5-.27-76.76,1.32-87.06,5-9.13,3.41-14.75,8.43-18.46,14.58l119.23,4.65Z"/><path class="cls-4" d="M373,1660.77c-4.22-8.18-1.05-18.73-2.11-28.22-.51-4.69-6.66-64.41-12.39-128.22v243.86c0,20,5.54,36.81,12.65,36.81l158.55-.74c6.85,0,12.39-16.89,12.39-36.82v-74.27c-76.77-1.06-132.41-1.86-137.69-1.86C387.78,1671.58,377.22,1669.21,373,1660.77Z"/><path class="cls-4" d="M1675.24,1659.71c-4.48,8.45-15,10.55-31.65,10.55-4.74,0-57,.8-129,1.85l-6.07.09v72.91c0,20,5.8,36.82,12.65,36.82l158.52-.75c7.13,0,12.67-16.1,12.67-36.81V1470.85c-6.72,74.29-14.6,155.05-15.28,160.64C1676,1641,1679.19,1651.53,1675.24,1659.71Z"/><path class="cls-6" d="M1624.47,1178c-5.72-4.5-44.32-34.9-53.68-38a19.6,19.6,0,0,1-8.26-5.46,10.76,10.76,0,0,1-1.76-3c-1.06-3.15-2.37-8.43-5.8-18.72-1.34-3.69-4.48-10.28-9.5-19-29.54-53.55-115.79-186.75-122.92-194.14-8.71-8.44-27.44-25.33-54.33-30.07-26.63-4.48-294.37-18.46-344.76-18.46-50.64,0-318.38,14.5-345,19.25-26.9,4.75-45.65,21.37-54.08,29.8-7.13,7.4-93.37,140.87-122.63,194.41a173.17,173.17,0,0,0-9.53,19c-3.4,10.54-4.74,15.81-5.77,18.72-1.34,2.9-8.2,7.65-10.82,9l-.8.8c-7.39,5-35.66,27.2-53.55,42.46-54.88,46.8-78.08,124.49-75.71,168.81.8,21.37,6.88,86.26,12.67,148,.09,1,.18,1.93.26,2.89,5.73,63.81,11.88,123.53,12.39,128.22,1.06,9.49-2.11,20,2.11,28.22,4.23,8.44,14.79,10.81,31.4,10.54,5.28,0,60.92.8,137.69,1.86,182.53,2.11,481.9,6.06,481.9,6.06l484.56-7,6.07-.09c72-1,124.24-1.85,129-1.85,16.64,0,27.17-2.1,31.65-10.55,4-8.18.8-18.73,1.86-28.22.68-5.59,8.56-86.35,15.28-160.64,1.2-13.29,2.37-26.37,3.45-38.77,3.14-36.15,5.52-66.48,6.33-79.92,1.44-23.8,1-74.3-28.25-120.76C1655.84,1202.75,1631.28,1183.4,1624.47,1178Z"/><path class="cls-4" d="M1590.57,1254c23.75,0,28.49-3.17,33.23,18.73,3.17,14.24,3.17,33.24,0,45.9-9.48,45.63-67.51,45.63-105.51,45.63-69.37.26-129.51,17.4-184.1-80.19,47-14,102.35-12.66,149.56-20.31A583.54,583.54,0,0,1,1590.57,1254Z"/><path class="cls-4" d="M423.64,1273.81c4.74-21.89,9.5-18.73,33-19,36.14,0,71,3.44,107.1,9.77,47.48,7.65,102.6,6.06,149.56,20.05-54.61,97.86-114.73,80.72-184.13,80.72-37.71,0-96,0-105.5-45.64C420.49,1307.05,420.49,1288.06,423.64,1273.81Z"/><path class="cls-1" d="M1023.47,1105.46c-145.9-3.33-471.26,17.74-480.4,17.74-5.46,0,31.85-69.7,66.23-131.9,32.55-58.87,97.32-97.09,169.41-99.92l181.5-7.1q63.48-2.49,127-.14l180.65,6.67c72.15,2.67,137.07,40.8,169.75,99.68,34.52,62.19,72,131.88,66.52,131.88C1494.73,1122.37,1169.61,1101.86,1023.47,1105.46Z"/><path class="cls-4" d="M1024,1116.18c-88,0-389.27,4.17-396.36,4.17a1,1,0,0,1-.2,0c-3.23-.66,26.94-20,54.78-37.32,26.82-16.67,80.2-27.49,139.61-28.29l149.56-2q52.3-.7,104.67,0l148.87,1.89c59.46.75,112.95,11.55,139.88,28.22,28,17.3,58.24,36.65,55,37.32a1,1,0,0,1-.21,0C1412.51,1120.12,1111.88,1116.15,1024,1116.18Z"/><path class="cls-4" d="M1665.22,1125.88c-15.71,3.67-32.17,5.82-47.88,8.47-7.34,1-18.27,5.19-25.71,3.69-6.31-1.63-7.29-6.79-12.6-8.93-5.46-1.78-12.1.89-18.13,2.42-1.13-2.93-2.55-8.22-6-18.69-1.23-3.51-4.48-10.16-9.45-19,36.65,6.62,26.92-38.92,51.39-54,16.69-10.09,40.93-2.13,58.83,1,17.78,2.61,40.34,9.9,41.94,32C1699.17,1096.45,1690.42,1120,1665.22,1125.88Z"/><path class="cls-1" d="M1584.28,1308.68a52.06,52.06,0,1,1-52.1-52.06A52,52,0,0,1,1584.28,1308.68Z"/><path class="cls-1" d="M566.65,1309.89a52.06,52.06,0,1,1-52.1-52.06A52,52,0,0,1,566.65,1309.89Z"/><path class="cls-1" d="M1379,1366.77c0,67.92-70.86,126.78-170.34,141.12a1297.16,1297.16,0,0,1-192.06,13.18,1294.28,1294.28,0,0,1-177.39-13.14c-99.57-14.33-170.58-73.17-170.58-141.15h0c0-13.5,14.23-25.14,34.05-27.87a2373.53,2373.53,0,0,1,642.29,0c19.82,2.72,34,14.36,34,27.86Z"/><rect class="cls-6" x="668.16" y="1390.87" width="707.97" height="3"/><rect class="cls-6" x="681.52" y="1418.19" width="684.9" height="3"/><rect class="cls-6" x="707.02" y="1449.76" width="631.47" height="3"/><path class="cls-4" d="M1322.78,1087H1071.24l20.68-61.48c9.56-28.44,33.43-47.2,60-47.2h92.72c27.66,0,52.23,20.24,61,50.27Z"/><path class="cls-4" d="M958.48,1087H706.94l20.67-61.48c9.56-28.44,33.43-47.2,60-47.2h92.73c27.66,0,52.22,20.24,61,50.27Z"/><path class="cls-4" d="M1622,1501.42v98.63a26,26,0,0,1-26,26H1458c-25.24,0-35.62-32.39-15.08-47.06L1581,1480.31C1598.14,1468,1622,1480.32,1622,1501.42Z"/><path class="cls-4" d="M444,1501.42v98.63a26,26,0,0,0,25.95,26H608c25.25,0,35.63-32.39,15.08-47.06L485,1480.31C467.83,1468,444,1480.32,444,1501.42Z"/><circle class="cls-6" cx="450.44" cy="654.34" r="181.66"/><path class="cls-7" d="M561.34,642.51c10.68-3.22,16.62-11.15,15.61-17a10.46,10.46,0,0,0-6.81-7.69c-4.78-1.56-8.75,1.48-9.22,1.85q-2.05,4-4.1,8.12l-6.74-30.33c-2.78-12.5-9.56-23.48-21.46-23.57L409.84,573c-9.25-.07-15,6.6-18.91,15.33q5,2.88,9.9,5.41l0,0v0h0l3.3-4.51a12.71,12.71,0,0,1,9.51-4.09l109.69.89c9.08.07,14.52,8.4,16.36,18l6.75,31.46-82-.66q-2.79,57.2-30.43,91.19l98.53.79-.05,5.89a7.09,7.09,0,0,0,6.73,7.36l28.87.24a7.1,7.1,0,0,0,6.84-7.25l.1-13.09c2.56-39.5,4-55.46-10.22-71.56Z"/><path class="cls-8" d="M553.43,688.14c0,3.86-3.7,7-7.94,6.92l-30.29-.24c-2.41,0-4.26-2.23-4.24-4.93l.06-6.59a5.61,5.61,0,0,1,4.32-5.57L545.67,673c4.25-.67,7.86,1.89,7.83,5.74Z"/><path class="cls-9" d="M393.75,646.58a15.18,15.18,0,0,1,4.18,10.53v5.22h-28.2v-5.22a15.15,15.15,0,0,1,4.19-10.53,13.54,13.54,0,0,1,19.83,0Zm-3.37,33a6.55,6.55,0,1,0-9.28,6l-3.59,9.4h12.65l-3.33-9.53A6.55,6.55,0,0,0,390.38,679.55Zm-6.54,67.37c-46.4-17.5-68.49-59-67.47-126.94a109.4,109.4,0,0,0,33.31-4,104.07,104.07,0,0,0,34.1-17.13c25.1,15.56,47.74,23,67.39,22.3C453.54,686.34,430.9,728.64,383.84,746.92Zm26-81.26a3.34,3.34,0,0,0-3.33-3.33h-2.25v-5.22a21.46,21.46,0,0,0-6-14.89,19.81,19.81,0,0,0-28.9,0,21.49,21.49,0,0,0-5.95,14.89v5.22h-2.25a3.34,3.34,0,0,0-3.33,3.33v35.18a3.34,3.34,0,0,0,3.33,3.33h45.31a3.34,3.34,0,0,0,3.33-3.33Z"/><path class="cls-8" d="M1385.73,449.57c-29.86-1.11-53.7-8.63-71.48-17.18a149,149,0,0,1-33.18-21.53,149,149,0,0,1-33.18,21.53c-17.78,8.55-41.62,16.07-71.48,17.18a247.42,247.42,0,0,0,9.77,86.05c12.39,41.26,39,87.76,94.89,120.53,55.86-32.77,82.5-79.27,94.89-120.53A247.42,247.42,0,0,0,1385.73,449.57Z"/><path class="cls-1" d="M1291.51,550.62q-6,8-11.27,16.52c-1,1.64-2,3.29-3,4.92-5.26,8.44-15.16,8.77-20.94.69-2.59-3.62-4.44-7.67-6.76-11.45a194.32,194.32,0,0,0-10.83-16.15c-.92-1.21-1.78-2.47-2.68-3.7-.31-.42-1.45-1.78-2.12-2.5-1.62-1.73-3.19-3.52-4.78-5.28a12.57,12.57,0,0,1-2.06-3.13c-.75-1.62-1-3.36.11-4.86a19.54,19.54,0,0,1,9.71-7.31c3.87-1.25,7.42-.4,10.71,1.85A51.85,51.85,0,0,1,1258,530a121.21,121.21,0,0,1,8.21,11.45c.93,1.42,1,1.44,1.92,0a137.28,137.28,0,0,1,37-36.78,119.51,119.51,0,0,1,22.69-12.14,62.22,62.22,0,0,1,18.12-4.17,9,9,0,0,1,4.32.72c2.28,1,2.47,3.6.54,5.67-2.14,2.3-4.84,3.86-7.3,5.75-9,6.88-17.86,13.91-26.16,21.63A218.59,218.59,0,0,0,1301,539c-2.28,2.64-4.46,5.36-6.69,8C1293.29,548.2,1291.69,550.39,1291.51,550.62Z"/><path class="cls-6" d="M1668.33,203.6h-358a34.7,34.7,0,0,0-34.67,34.66V369.09H1281V238.26A29.35,29.35,0,0,1,1310.29,209h358a29.34,29.34,0,0,1,29.31,29.31V762.33a29.33,29.33,0,0,1-29.31,29.31h-358A29.34,29.34,0,0,1,1281,762.33V696.85h-5.36v65.48A34.71,34.71,0,0,0,1310.29,797h358A34.71,34.71,0,0,0,1703,762.33V238.26A34.7,34.7,0,0,0,1668.33,203.6Z"/><rect class="cls-10" x="1335.6" y="277.51" width="306.34" height="26.78" rx="12.5"/><rect class="cls-10" x="1335.6" y="349.27" width="306.34" height="26.78" rx="12.5"/><rect class="cls-10" x="1439.5" y="423.18" width="202.44" height="26.78" rx="12.5"/><ellipse class="cls-6" cx="911.57" cy="306" rx="112.83" ry="108.5"/><path class="cls-9" d="M949,310.47c-5.84-5.33-15.44-10.36-29.35-15.38-21.39-7.78-24.58-13.65-24.58-16.46,0-3.52,1.64-6.11,5.16-8.15,3.84-2.22,8.8-3.35,14.73-3.35,11,0,19.79,2.2,26,6.55l3,2.1,13.17-17.66-3.29-1.49a100.57,100.57,0,0,0-27.26-8.15V229.92H902.15v19c-9.48,1.93-17.15,5.47-22.84,10.55-6.36,5.68-9.59,12.56-9.59,20.43,0,6.86,3.59,13.28,10.68,19.1,6.7,5.5,16.77,10.62,30,15.22,14.86,5.12,22.4,11,22.4,17.44,0,4-1.93,7.21-5.89,9.71-4.21,2.67-10,4-17.34,4-11.5,0-21.5-2.73-29.73-8.1l-3.09-2L865,352.31l2.45,1.57c8.84,5.64,19.68,9.17,32.26,10.49v17.71h24.77V363.57c9.72-2.11,17.66-6,23.64-11.55,6.63-6.17,10-13.2,10-20.89A26.93,26.93,0,0,0,949,310.47Z"/><line class="cls-11" x1="1269" y1="312" x2="1269" y2="312"/><line class="cls-12" x1="1269" y1="312" x2="1260.09" y2="312"/><line class="cls-13" x1="1249.18" y1="312" x2="1060.91" y2="312"/><line class="cls-11" x1="1051" y1="312" x2="1051" y2="312"/><polyline class="cls-14" points="729 312 444 312 444 460.5"/><path class="cls-6" d="M986.11,533.61c2.87.58,4.25,2.62,4.93,5.11,5.64,20.87,16.67,38.68,31.69,53.92,8.73,8.86,20.06,14.14,31.48,18.8,5,2,10,4.68,15.77,4.1,1.33-.13,2.9.44,2.91,2.08,0,2-1.56,3.34-3.17,4.18-4.26,2.22-8.69,4.11-12.94,6.35-16.7,8.81-28.85,22-37.84,38.53-7.25,13.35-10.32,27.9-13.53,42.46-.66,3-1.23,7-4.22,7.2-3.45.18-4.19-4.11-5.1-7-7.25-23.11-19.6-42.83-38.87-57.76-10.1-7.82-22-12.31-34-16.48a13.57,13.57,0,0,0-3.46-.29c-1.77-.12-4.12.44-4.6-1.92s1.43-3.84,3.5-4.82c3.74-1.79,7.49-3.57,11.21-5.4,19.51-9.6,32.86-25,41.46-44.68,3.84-8.81,7.59-17.66,9.83-27.09A48.63,48.63,0,0,0,982.29,540C982.31,537.27,983.18,534.79,986.11,533.61Z"/><path class="cls-6" d="M865.34,635.72a2.9,2.9,0,0,1,2.25,2.34,55.44,55.44,0,0,0,14.48,24.63c4,4,9.16,6.46,14.38,8.59,2.29.93,4.56,2.14,7.2,1.87.61-.06,1.33.2,1.33,1a2.24,2.24,0,0,1-1.45,1.91c-1.94,1-4,1.88-5.91,2.9a41.58,41.58,0,0,0-17.28,17.61c-3.32,6.09-4.72,12.74-6.19,19.39-.3,1.36-.56,3.22-1.92,3.29-1.58.08-1.92-1.88-2.33-3.2-3.31-10.56-9-19.57-17.76-26.39-4.61-3.57-10-5.62-15.51-7.53a6.29,6.29,0,0,0-1.58-.13c-.81-.05-1.88.2-2.1-.88s.65-1.75,1.6-2.2q2.57-1.22,5.12-2.46c8.91-4.39,15-11.42,18.94-20.42a73.67,73.67,0,0,0,4.49-12.37,21.94,21.94,0,0,0,.49-5A2.86,2.86,0,0,1,865.34,635.72Z"/></g></svg>